<?xml version="1.0" standalone="no"?>
<!DOCTYPE svg PUBLIC "-//W3C//DTD SVG 20010904//EN"
 "http://www.w3.org/TR/2001/REC-SVG-20010904/DTD/svg10.dtd">
<svg version="1.0" xmlns="http://www.w3.org/2000/svg"
 width="512.000000pt" height="512.000000pt" viewBox="0 0 512.000000 512.000000"
 preserveAspectRatio="xMidYMid meet">

<g transform="translate(0.000000,512.000000) scale(0.100000,-0.100000)"
fill="#000000" stroke="none">
<path d="M272 4900 c-62 -38 -91 -124 -61 -183 6 -12 491 -502 1078 -1089
l1066 -1068 -1066 -1067 c-587 -588 -1072 -1078 -1078 -1090 -17 -34 -13 -95
9 -131 38 -62 124 -91 183 -61 12 6 502 491 1090 1078 l1067 1066 1068 -1066
c587 -587 1077 -1072 1089 -1078 34 -17 95 -13 131 9 62 38 91 124 61 183 -6
12 -491 502 -1078 1090 l-1066 1067 1066 1068 c587 587 1072 1077 1078 1089
30 59 1 145 -61 183 -36 22 -97 26 -131 9 -12 -6 -502 -491 -1089 -1078
l-1068 -1066 -1067 1066 c-588 587 -1078 1072 -1090 1078 -34 17 -95 13 -131
-9z"/>
</g>
</svg>
